<?xml version="1.0" encoding="utf-8"?>
<!-- Generator: Adobe Illustrator 23.0.6, SVG Export Plug-In . SVG Version: 6.00 Build 0)  -->
<svg version="1.1" id="Layer_1" xmlns="http://www.w3.org/2000/svg" xmlns:xlink="http://www.w3.org/1999/xlink" x="0px" y="0px"
	 viewBox="0 0 625.4 123.3" style="enable-background:new 0 0 625.4 123.3;" xml:space="preserve">
<style type="text/css">
	.st0{fill:#5F00FF;}
	.st1{fill:#832EFE;}
	.st2{fill:#5113D8;}
	.st3{fill:#6721D6;}
</style>
<g>
	<g>
		<path class="st0" d="M42,84.5l-8.2,7.3l-0.1-57l8.3-7.3"/>
	</g>
	<g>
		<path class="st1" d="M31.8,93.6l-8.1,6.9v-57l8.1-6.9"/>
	</g>
	<g>
		<path class="st2" d="M44,91.6l8.1-7.2H42l-8.2,7.3L44,91.6z"/>
	</g>
	<g>
		<path class="st3" d="M33.9,100.4l8.1-7.1l-10.2,0.1l-8.1,7.1L33.9,100.4z"/>
	</g>
	<g>
		<path class="st1" d="M53.8,34.2v16.7h22.9V59H53.8V83H43.6V26h10.1H80v8.2H53.8z"/>
	</g>
	<polygon class="st3" points="55.3,69.7 55.3,76.3 56.7,76.3 64.6,69.7 	"/>
	<polygon class="st2" points="55.3,60.8 55.3,67.8 66.6,67.8 74.5,60.8 	"/>
	<polygon class="st3" points="55.3,44.7 55.3,49.3 62.7,49.3 68.1,44.7 	"/>
	<polygon class="st2" points="55.3,35.9 55.3,43 69.9,43 78,35.9 	"/>
</g>
</svg>
