<?xml version="1.0" standalone="no"?>
<!DOCTYPE svg PUBLIC "-//W3C//DTD SVG 20010904//EN"
 "http://www.w3.org/TR/2001/REC-SVG-20010904/DTD/svg10.dtd">
<svg version="1.0" xmlns="http://www.w3.org/2000/svg"
 width="700.000000pt" height="700.000000pt" viewBox="0 0 700.000000 700.000000"
 preserveAspectRatio="xMidYMid meet">
<metadata>
Created by potrace 1.11, written by Peter Selinger 2001-2013
</metadata>
<g transform="translate(0.000000,700.000000) scale(0.100000,-0.100000)"
fill="#000000" stroke="none">
<path d="M2830 4216 l0 -2484 440 0 c330 0 440 2 441 11 1 7 2 478 2 1047 l2
1035 995 0 995 1 3 355 2 355 -998 -1 -998 0 0 726 0 726 1126 1 c619 0 1132
1 1140 1 13 1 15 46 15 354 l0 352 -1582 3 -1583 2 0 -2484z"/>
<path d="M2634 6532 c-42 -39 -165 -148 -244 -217 -25 -22 -47 -42 -50 -45 -3
-3 -39 -34 -80 -70 -41 -36 -77 -67 -80 -70 -3 -3 -50 -46 -105 -95 -55 -49
-103 -93 -106 -97 -3 -4 -4 -554 -3 -1221 2 -666 3 -1781 3 -2477 l1 -1265
218 2 c119 1 321 2 447 2 226 1 231 1 255 24 14 13 50 45 80 71 79 69 191 169
204 181 6 6 67 60 136 120 69 60 143 126 165 146 22 20 53 48 69 61 l29 24
-444 0 -444 -1 1 2483 c0 1365 -2 2482 -5 2482 -4 0 -24 -17 -47 -38z m6
-4966 c0 -2 -8 -10 -17 -17 -16 -13 -17 -12 -4 4 13 16 21 21 21 13z"/>
<path d="M3854 5831 c-2 -2 -4 -141 -4 -308 l0 -303 633 0 632 0 60 51 c53 46
108 93 224 195 20 18 59 51 86 75 28 24 78 67 110 96 33 28 70 60 81 70 104
89 134 116 134 122 0 6 -1949 9 -1956 2z"/>
<path d="M1665 5668 c-71 -61 -154 -131 -184 -157 -29 -25 -63 -54 -75 -64
-11 -10 -32 -28 -46 -40 -14 -12 -68 -58 -120 -102 -52 -44 -106 -90 -120
-102 l-25 -23 -1 -2485 0 -2486 395 5 c218 3 419 5 446 6 46 0 55 5 120 62 39
33 96 84 129 112 32 28 64 56 70 61 6 6 91 80 190 165 98 85 193 167 210 182
l31 28 -35 0 c-34 1 -603 -1 -745 -1 -38 -1 -78 0 -87 0 -17 1 -18 128 -20
2475 l-3 2475 -130 -111z"/>
<path d="M3850 4870 l0 -200 318 0 c310 0 320 1 343 21 13 12 117 100 232 196
114 96 207 177 207 179 0 2 -247 4 -550 4 l-550 0 0 -200z"/>
<path d="M3855 3662 c-3 -3 -5 -140 -5 -304 l0 -298 487 0 488 1 60 52 c33 28
62 54 65 57 3 3 37 32 75 65 39 33 72 62 75 65 3 3 37 32 75 65 39 33 75 65
80 71 6 5 44 39 85 75 41 35 93 81 115 101 22 21 43 38 48 38 4 0 7 4 7 8 0 9
-1646 12 -1655 4z"/>
<path d="M3850 2610 l0 -290 61 0 c59 0 63 2 123 52 33 29 63 55 66 58 3 3 75
64 160 135 85 71 157 132 160 135 3 3 32 28 65 55 33 28 73 62 90 77 16 14 41
35 55 47 l25 20 -402 1 -403 0 0 -290z"/>
</g>
</svg>
